<svg enable-background="new 0 0 512 512" viewBox="0 0 512 512" xmlns="http://www.w3.org/2000/svg"><linearGradient id="SVGID_1_" gradientUnits="userSpaceOnUse" x1="32" y1="63" x2="32" y2="1.7637">
		<stop offset="0" style="stop-color:rgb(47, 255, 75)"/>
		<stop offset="1" style="stop-color:#0BB1D3"/>
	</linearGradient>
	<g>
		<path style="fill:url(#SVGID_1_);" d="m361 15.982c-7.735 0-15.704-.268-20.709 5.722-.073.086-.181.121-.253.211l-95.757 119.692c-4.775 5.977-4.292 14.575 1.113 19.98l79.395 79.395-79.395 79.395c-2.813 2.813-4.395 6.621-4.395 10.605v57.568l-27.832-83.511 53.438-53.452c5.859-5.859 5.859-15.352 0-21.211l-81.724-81.724 52.808-87.993c4.228-7.041 1.448-16.283-4.644-20.273-.132-.086-.28-.143-.412-.229-.035-.022-.051-.059-.086-.079-.049-.029-.106-.026-.156-.055-24.244-15.701-52.361-24.041-81.391-24.041-82.705 0-151 67.295-151 150 0 37.529 14.931 73.462 40.243 101.177l204.683 223.945c.075.082.189.11.266.19 6.219 6.524 15.361 5.888 21.011.571.207-.194.41-.366.606-.571.077-.081.19-.108.266-.19l204.683-223.945c25.311-27.715 40.242-63.648 40.242-101.177 0-82.705-68.295-150-151-150z"/>
        </g>
    </svg>