<?xml version="1.0" encoding="iso-8859-1"?>
<!DOCTYPE svg PUBLIC "-//W3C//DTD SVG 1.1//EN" "http://www.w3.org/Graphics/SVG/1.1/DTD/svg11.dtd">
<svg version="1.1" id="Capa_1" xmlns="http://www.w3.org/2000/svg" xmlns:xlink="http://www.w3.org/1999/xlink" x="0px" y="0px"
	 width="16px" height="16px" viewBox="0 0 302.167 302.167" style="enable-background:new 0 0 302.167 302.167;" xml:space="preserve">
	<linearGradient id="SVGID_1_" gradientUnits="userSpaceOnUse" x1="32" y1="63" x2="32" y2="1.7637">
		<stop offset="0" style="stop-color:rgb(47, 255, 75)"/>
		<stop offset="1" style="stop-color:#0BB1D3"/>
	</linearGradient>
	<g>
		<path style="fill:url(#SVGID_1_);" d="M160.968,301.675c-1.601,0-3.125-0.624-4.275-1.729c-0.252-0.24-26.244-25.388-130.22-129.355l-0.72-0.732
		c-0.817-0.805-1.21-1.261-1.598-1.711C8.455,151.174,0,129.683,0,107.228c0-49.158,40.004-89.159,89.159-89.159
		c28.076,0,53.89,12.919,70.713,34.975c16.825-22.062,42.646-34.975,70.712-34.975c49.168,0,89.159,40.001,89.159,89.159
		c0,24.881-10.063,48-28.343,65.08c0.049,0.006-0.162,0.246-0.402,0.486c-104.621,104.609-125.341,126.72-125.542,126.923
		c-1.132,1.214-2.693,1.916-4.335,1.958C161.072,301.675,161.01,301.675,160.968,301.675z"/>
</g>
</svg>
